<svg width="20" height="20" viewBox="0.333 0 20 20" xmlns="http://www.w3.org/2000/svg">
<path d="M16.1163 0C16.4424 0 16.6054 0 16.7589 0.0368401C16.8949 0.0695024 17.025 0.123375 17.1443 0.19648C17.2789 0.278935 17.3942 0.394237 17.6248 0.624839L19.7084 2.70849C19.939 2.9391 20.0543 3.0544 20.1368 3.18895C20.2099 3.30825 20.2638 3.43831 20.2964 3.57436C20.3333 3.72781 20.3333 3.89087 20.3333 4.21699V6.66667V8.26667C20.3333 8.64003 20.3333 8.82672 20.2606 8.96933C20.1967 9.09477 20.0947 9.19676 19.9692 9.26067C19.8266 9.33333 19.64 9.33333 19.2666 9.33333H16.5333C16.3466 9.33333 16.2532 9.33333 16.1819 9.36967C16.1192 9.40162 16.0682 9.45262 16.0363 9.51534C15.9999 9.58664 15.9999 9.67998 15.9999 9.86667V10.1333C15.9999 10.32 15.9999 10.4134 16.0363 10.4847C16.0682 10.5474 16.1192 10.5984 16.1819 10.6303C16.2532 10.6667 16.3466 10.6667 16.5333 10.6667H19.2666C19.64 10.6667 19.8266 10.6667 19.9692 10.7393C20.0947 10.8032 20.1967 10.9052 20.2606 11.0307C20.3333 11.1733 20.3333 11.36 20.3333 11.7333V13.3333V15.783C20.3333 16.1091 20.3333 16.2722 20.2964 16.4256C20.2638 16.5617 20.2099 16.6918 20.1368 16.811C20.0543 16.9456 19.939 17.0609 19.7084 17.2915L17.6248 19.3752C17.3942 19.6058 17.2789 19.7211 17.1443 19.8035C17.025 19.8766 16.8949 19.9305 16.7589 19.9632C16.6054 20 16.4424 20 16.1163 20H3.66659H2.46658C1.71985 20 1.34648 20 1.06126 19.8547C0.810382 19.7268 0.606408 19.5229 0.478577 19.272C0.333252 18.9868 0.333252 18.6134 0.333252 17.8667V16.6667V3.33333V2.13333C0.333252 1.3866 0.333252 1.01323 0.478577 0.728013C0.606408 0.47713 0.810382 0.273156 1.06126 0.145325C1.34648 0 1.71985 0 2.46659 0H3.66659H16.1163Z" fill="black"/>
</svg>
